<svg xmlns="http://www.w3.org/2000/svg" version="1.1" xmlns:xlink="http://www.w3.org/1999/xlink" xmlns:svgjs="http://svgjs.dev/svgjs" width="1000" height="1000" viewBox="0 0 1000 1000"><rect width="1000" height="1000" fill="#0b022d"></rect><g transform="matrix(0.7,0,0,0.7,149.40716054652512,175.46300218366918)"><svg viewBox="0 0 266 247" data-background-color="#0b022d" preserveAspectRatio="xMidYMid meet" height="928" width="1000" xmlns="http://www.w3.org/2000/svg" xmlns:xlink="http://www.w3.org/1999/xlink"><g id="tight-bounds" transform="matrix(1,0,0,1,0.22527899232045456,-0.09999913073508537)"><svg viewBox="0 0 265.54943001176593 247.2" height="247.2" width="265.54943001176593"><g><svg viewBox="0 0 395.52 368.1896210271206" height="247.2" width="265.54943001176593"><g><svg viewBox="0 0 395.52 368.1896210271206" height="368.1896210271206" width="395.52"><g id="textblocktransform"><svg viewBox="0 0 395.52 368.1896210271206" height="368.1896210271206" width="395.52" id="textblock"><g><svg viewBox="0 0 395.52 240.28393285371706" height="240.28393285371706" width="395.52"><g transform="matrix(1,0,0,1,0,0)"><svg width="395.52" viewBox="2.5 -36.04999923706055 62.55000305175781 38" height="240.28393285371706" data-palette-color="#f7fff7"><path d="M22.75-35.6Q24-35.1 24-34.2L24-34.2Q24-33.3 22.75-31.9L22.75-31.9Q22.2-31.95 21.15-31.95L21.15-31.95Q18.85-31.95 16.75-31.33 14.65-30.7 12.4-29.4L12.4-29.4Q11.35-28.75 10.6-27.75L10.6-27.75Q10.05-27.15 10.05-26.35L10.05-26.35Q10.05-25 11.55-23.75L11.55-23.75Q13-22.25 16.3-18.3L16.3-18.3 17.45-17.1Q19.9-14.45 21.33-12.6 22.75-10.75 23.75-8.35L23.75-8.35Q24.15-7.3 24.15-6.45L24.15-6.45Q24.15-4.3 22.5-2.5L22.5-2.5Q20.6-0.4 18.1 0.58 15.6 1.55 12.45 1.8L12.45 1.8Q12.05 1.85 11.5 1.9 10.95 1.95 10.25 1.95L10.25 1.95Q9.8 1.95 8.9 1.85L8.9 1.85Q7.8 1.9 6.6 1.48 5.4 1.05 4.4 0.25L4.4 0.25Q2.5-1.35 2.5-3.3L2.5-3.3Q2.5-4.95 3.9-6.65L3.9-6.65Q4.6-6.55 4.73-6.23 4.85-5.9 4.78-5.5 4.7-5.1 4.7-4.85L4.7-4.85Q4.7-4.7 4.8-4.4L4.8-4.4Q6.75-3.5 9.45-3.5L9.45-3.5Q12.45-3.5 15.13-4.53 17.8-5.55 18.4-7.05L18.4-7.05Q18.75-8.05 16.7-10.58 14.65-13.1 12.1-15.5L12.1-15.5Q9.7-17.65 7.75-19.75L7.75-19.75Q6.65-20.95 6.03-22.53 5.4-24.1 5.4-25.8L5.4-25.8Q5.4-28.1 6.58-30.15 7.75-32.2 10.1-33.5L10.1-33.5Q14.6-36.05 19.3-36.05L19.3-36.05Q19.95-36.05 21.15-35.95L21.15-35.95Q22.25-35.85 22.75-35.6L22.75-35.6ZM33.4 1.1Q29.2 1.1 28.05-2.5L28.05-2.5Q28.45-2.5 29.12-2.48 29.8-2.45 30.25-2.35L30.25-2.35Q30.95-2.25 31.25-2.25L31.25-2.25Q33.5-2.25 35-4.25L35-4.25Q36.05-5.7 36.05-7.2L36.05-7.2Q36.05-8.2 35.55-9.15L35.55-9.15Q34.45-11.1 32.85-13.45L32.85-13.45Q31.8-15 30.95-16.4L30.95-16.4Q29.95-18 29.95-19.95L29.95-19.95Q29.95-21.75 30.97-23.13 32-24.5 34-24.85L34-24.85 35.6-25.15Q38.2-25.65 39.5-25.65L39.5-25.65Q41.65-25.65 43.3-24.65L43.3-24.65Q43.65-24.4 44.02-23.78 44.4-23.15 44.6-22.8L44.6-22.8Q44.25-22.65 43.62-22.33 43-22 42.55-21.95L42.55-21.95Q41.85-21.85 40.45-21.85L40.45-21.85Q39.1-21.85 38.4-21.8L38.4-21.8Q36.8-21.65 35.87-20.73 34.95-19.8 34.95-18.5L34.95-18.5Q34.95-17.5 35.55-16.45L35.55-16.45Q36.9-14.2 39.3-11.3L39.3-11.3Q41.1-9.05 41.1-6.65L41.1-6.65Q41.1-5.35 40.5-3.9L40.5-3.9Q38.45 1.1 33.4 1.1L33.4 1.1ZM61.4-2.55Q60.95-2.75 60.5-2.75L60.5-2.75Q60.05-2.75 59.72-2.53 59.4-2.3 59-1.85L59-1.85Q58.4-1.25 57.75-0.85L57.75-0.85Q57.15-0.5 55.55-0.2L55.55-0.2Q54.85-0.1 54.4-0.1L54.4-0.1Q52.3-0.1 50.02-1.03 47.75-1.95 46.8-3.25L46.8-3.25Q45.8-4.65 45.85-6.25L45.85-6.25Q45.9-8.65 47.85-11.05L47.85-11.05Q49.75-13.35 51.32-14.3 52.9-15.25 55.65-15.5L55.65-15.5Q56.25-15.5 57.37-15.7 58.5-15.9 58.5-16.25L58.5-16.25Q58.5-16.95 57.87-17.53 57.25-18.1 55.35-18.1L55.35-18.1Q54.65-18.1 53.25-18L53.25-18Q51.85-17.9 51.3-17.9L51.3-17.9Q49.6-17.9 48.85-18.45L48.85-18.45Q48.65-18.55 48.65-19.4L48.65-19.4Q48.65-20.9 49.7-21.3L49.7-21.3Q51.85-22.1 54.15-22.15L54.15-22.15Q57.05-22.15 59.52-20.88 62-19.6 63.15-17.7L63.15-17.7Q64.3-15.8 64.65-12.45L64.65-12.45Q65.05-8.7 65.05-2.9L65.05-2.9Q65.05-1.3 64.59-1.05L64.59-1.05Q64.2-0.8 63.85-0.8L63.85-0.8Q63.4-0.8 63.02-1.07 62.65-1.35 62.2-1.85L62.2-1.85Q61.75-2.4 61.4-2.55L61.4-2.55ZM53.5-3.15Q55.85-3.85 58.1-5.4L58.1-5.4Q58.6-5.75 59-6.3 59.4-6.85 59.5-7L59.5-7Q59.6-7.15 59.67-7.88 59.75-8.6 59.7-9.05L59.7-9.05Q59.65-9.2 59.52-9.85 59.4-10.5 59.15-11L59.15-11Q58.9-11.4 58.35-11.75 57.8-12.1 57.35-12.05L57.35-12.05Q56.4-12 55.3-11.35 54.2-10.7 53.25-9.6L53.25-9.6Q52.3-8.45 51.77-7.28 51.25-6.1 51.25-5.1L51.25-5.1Q51.35-3.75 52-3.3L52-3.3Q52.35-3.05 52.85-3.05L52.85-3.05Q53.25-3.05 53.5-3.15L53.5-3.15Z" opacity="1" transform="matrix(1,0,0,1,0,0)" fill="#f7fff7" class="undefined-text-0" data-fill-palette-color="primary" id="text-0"></path></svg></g></svg></g><g transform="matrix(1,0,0,1,0,297.0092025860912)"><svg viewBox="0 0 395.52 71.18041844102943" height="71.18041844102943" width="395.52"><g transform="matrix(1,0,0,1,0,0)"><svg width="395.52" viewBox="1.75 -38 270.04998779296875 48.599998474121094" height="71.18041844102943" data-palette-color="#f7fff7"><path d="M9.4 0L9.4-2.3 14.15-2.3 14.15-32.45 5.35-32.45 5.35-26.5 1.75-26.5 1.75-34.9 30.85-34.9 30.85-26.5 27.25-26.5 27.25-32.45 18.45-32.45 18.45-2.3 23.2-2.3 23.2 0 9.4 0ZM44.3 0.6L44.3 0.6Q41.55 0.6 39.38-0.38 37.2-1.35 35.7-3.1 34.2-4.85 33.4-7.35 32.6-9.85 32.6-12.9L32.6-12.9Q32.6-15.9 33.48-18.38 34.35-20.85 35.88-22.65 37.4-24.45 39.5-25.43 41.6-26.4 44.1-26.4L44.1-26.4Q46.65-26.4 48.65-25.5 50.65-24.6 52.03-22.98 53.4-21.35 54.15-19.1 54.9-16.85 54.9-14.2L54.9-14.2 54.9-13.05 37.15-13.05 37.15-11.75Q37.15-7.5 39.28-5.05 41.4-2.6 44.95-2.6L44.95-2.6Q48.05-2.6 49.88-3.88 51.7-5.15 52.75-7.2L52.75-7.2 54.4-6.15Q53.9-4.85 53.03-3.63 52.15-2.4 50.9-1.48 49.65-0.55 48 0.03 46.35 0.6 44.3 0.6ZM37.15-15.95L37.15-15.35 50.6-15.35 50.6-15.85Q50.6-17.6 50.23-19.1 49.85-20.6 49.05-21.7 48.25-22.8 47.03-23.43 45.8-24.05 44.1-24.05L44.1-24.05Q42.4-24.05 41.1-23.45 39.8-22.85 38.93-21.75 38.05-20.65 37.6-19.18 37.15-17.7 37.15-15.95L37.15-15.95ZM71.15 0.6L71.15 0.6Q68.35 0.6 66.18-0.38 64-1.35 62.5-3.13 61-4.9 60.2-7.38 59.4-9.85 59.4-12.9L59.4-12.9Q59.4-16 60.28-18.5 61.15-21 62.75-22.75 64.35-24.5 66.58-25.45 68.8-26.4 71.5-26.4L71.5-26.4Q75.55-26.4 77.93-24.68 80.3-22.95 80.3-20.3L80.3-20.3Q80.3-18.7 79.48-17.8 78.65-16.9 77.2-16.9L77.2-16.9Q75.65-16.9 74.9-17.8 74.15-18.7 74.15-19.95L74.15-19.95Q74.15-21.05 74.7-21.85 75.25-22.65 76.25-23.1L76.25-23.1 76.25-23.25Q75.6-23.65 74.58-23.85 73.55-24.05 71.95-24.05L71.95-24.05Q70.2-24.05 68.73-23.4 67.25-22.75 66.2-21.58 65.15-20.4 64.55-18.82 63.95-17.25 63.95-15.4L63.95-15.4 63.95-11.7Q63.95-9.65 64.5-7.98 65.05-6.3 66.08-5.1 67.1-3.9 68.53-3.25 69.95-2.6 71.75-2.6L71.75-2.6Q74.8-2.6 76.55-3.88 78.3-5.15 79.35-7.2L79.35-7.2 80.95-6.15Q80.5-4.85 79.65-3.63 78.8-2.4 77.6-1.48 76.4-0.55 74.78 0.03 73.15 0.6 71.15 0.6ZM84.7 0L84.7-2.3 88.4-2.3 88.4-34.15 84.7-34.8 84.7-36.55 92.5-38 92.5-21.95 92.7-21.95Q93-22.7 93.6-23.5 94.2-24.3 95.13-24.95 96.05-25.6 97.28-26 98.5-26.4 100.05-26.4L100.05-26.4Q104.7-26.4 106.7-23.98 108.7-21.55 108.7-16.7L108.7-16.7 108.7-2.3 112.4-2.3 112.4 0 100.9 0 100.9-2.3 104.6-2.3 104.6-16.35Q104.6-20 103.15-21.78 101.7-23.55 98.55-23.55L98.55-23.55Q97.45-23.55 96.38-23.25 95.3-22.95 94.43-22.3 93.55-21.65 93.03-20.7 92.5-19.75 92.5-18.45L92.5-18.45 92.5-2.3 96.2-2.3 96.2 0 84.7 0ZM116.65 0L116.65-2.3 120.35-2.3 120.35-22.55 116.65-23.2 116.65-24.9 124.35-26.4 124.35-21.9 124.55-21.9Q124.85-22.65 125.48-23.45 126.1-24.25 127.03-24.9 127.95-25.55 129.2-25.98 130.45-26.4 131.95-26.4L131.95-26.4Q136.6-26.4 138.63-23.98 140.65-21.55 140.65-16.7L140.65-16.7 140.65-2.3 144.35-2.3 144.35 0 132.85 0 132.85-2.3 136.55-2.3 136.55-16.35Q136.55-23.55 130.5-23.55L130.5-23.55Q129.4-23.55 128.33-23.25 127.25-22.95 126.38-22.3 125.5-21.65 124.98-20.7 124.45-19.75 124.45-18.45L124.45-18.45 124.45-2.3 128.15-2.3 128.15 0 116.65 0ZM160.2-1.85L160.2-1.85Q162.05-1.85 163.43-2.48 164.8-3.1 165.68-4.23 166.55-5.35 166.98-6.88 167.4-8.4 167.4-10.2L167.4-10.2 167.4-15.6Q167.4-17.4 166.98-18.93 166.55-20.45 165.68-21.58 164.8-22.7 163.43-23.33 162.05-23.95 160.2-23.95L160.2-23.95Q158.3-23.95 156.95-23.33 155.6-22.7 154.73-21.58 153.85-20.45 153.43-18.93 153-17.4 153-15.6L153-15.6 153-10.2Q153-8.4 153.43-6.88 153.85-5.35 154.73-4.23 155.6-3.1 156.95-2.48 158.3-1.85 160.2-1.85ZM160.2 0.6L160.2 0.6Q157.55 0.6 155.35-0.35 153.15-1.3 151.6-3.08 150.05-4.85 149.2-7.33 148.35-9.8 148.35-12.9L148.35-12.9Q148.35-15.95 149.2-18.45 150.05-20.95 151.6-22.73 153.15-24.5 155.35-25.45 157.55-26.4 160.2-26.4L160.2-26.4Q162.85-26.4 165.05-25.45 167.25-24.5 168.8-22.73 170.35-20.95 171.2-18.45 172.05-15.95 172.05-12.9L172.05-12.9Q172.05-9.8 171.2-7.33 170.35-4.85 168.8-3.08 167.25-1.3 165.05-0.35 162.85 0.6 160.2 0.6ZM176.05 0L176.05-2.3 179.75-2.3 179.75-34.15 176.05-34.8 176.05-36.55 183.85-38 183.85-2.3 187.55-2.3 187.55 0 176.05 0ZM203.4-1.85L203.4-1.85Q205.25-1.85 206.63-2.48 208-3.1 208.88-4.23 209.75-5.35 210.18-6.88 210.6-8.4 210.6-10.2L210.6-10.2 210.6-15.6Q210.6-17.4 210.18-18.93 209.75-20.45 208.88-21.58 208-22.7 206.63-23.33 205.25-23.95 203.4-23.95L203.4-23.95Q201.5-23.95 200.15-23.33 198.8-22.7 197.93-21.58 197.05-20.45 196.63-18.93 196.2-17.4 196.2-15.6L196.2-15.6 196.2-10.2Q196.2-8.4 196.63-6.88 197.05-5.35 197.93-4.23 198.8-3.1 200.15-2.48 201.5-1.85 203.4-1.85ZM203.4 0.6L203.4 0.6Q200.75 0.6 198.55-0.35 196.35-1.3 194.8-3.08 193.25-4.85 192.4-7.33 191.55-9.8 191.55-12.9L191.55-12.9Q191.55-15.95 192.4-18.45 193.25-20.95 194.8-22.73 196.35-24.5 198.55-25.45 200.75-26.4 203.4-26.4L203.4-26.4Q206.05-26.4 208.25-25.45 210.45-24.5 212-22.73 213.55-20.95 214.4-18.45 215.25-15.95 215.25-12.9L215.25-12.9Q215.25-9.8 214.4-7.33 213.55-4.85 212-3.08 210.45-1.3 208.25-0.35 206.05 0.6 203.4 0.6ZM230.6 10.6L230.6 10.6Q227.6 10.6 225.5 10.15 223.4 9.7 222.1 8.9 220.8 8.1 220.22 6.95 219.65 5.8 219.65 4.4L219.65 4.4Q219.65 3.4 220.1 2.55 220.55 1.7 221.3 1.05 222.05 0.4 223-0.08 223.95-0.55 224.95-0.8L224.95-0.8 224.95-1Q221.8-2.1 221.8-5.25L221.8-5.25Q221.8-7.25 223.07-8.4 224.35-9.55 226.05-10L226.05-10 226.05-10.25Q223.7-11.25 222.32-13.2 220.95-15.15 220.95-17.9L220.95-17.9Q220.95-19.85 221.68-21.43 222.4-23 223.72-24.1 225.05-25.2 226.85-25.8 228.65-26.4 230.8-26.4L230.8-26.4Q233.15-26.4 234.82-25.78 236.5-25.15 237.65-24.25L237.65-24.25Q237.7-27.15 238.78-28.2 239.85-29.25 241.3-29.25L241.3-29.25Q242.4-29.25 243.13-28.6 243.85-27.95 243.85-26.85L243.85-26.85Q243.85-25.8 243.18-25.13 242.5-24.45 241.3-24.45L241.3-24.45Q239.9-24.45 239.15-25.45L239.15-25.45 239-25.45 239-22.95Q239.55-22.2 240.15-21 240.75-19.8 240.75-17.9L240.75-17.9Q240.75-15.95 240-14.35 239.25-12.75 237.93-11.65 236.6-10.55 234.78-9.95 232.95-9.35 230.8-9.35L230.8-9.35Q229.4-9.35 228.15-9.65L228.15-9.65Q226.85-9.4 225.8-8.58 224.75-7.75 224.75-6.6L224.75-6.6Q224.75-5.35 225.7-4.85 226.65-4.35 228.9-4.35L228.9-4.35 234.8-4.35Q239.2-4.35 241.32-2.58 243.45-0.8 243.45 2.5L243.45 2.5Q243.45 6.2 240.2 8.4 236.95 10.6 230.6 10.6ZM230.85-11.5L230.85-11.5Q233.6-11.5 234.97-12.95 236.35-14.4 236.35-16.9L236.35-16.9 236.35-18.85Q236.35-21.35 234.97-22.8 233.6-24.25 230.85-24.25L230.85-24.25Q228.1-24.25 226.72-22.8 225.35-21.35 225.35-18.85L225.35-18.85 225.35-16.9Q225.35-14.4 226.72-12.95 228.1-11.5 230.85-11.5ZM223.3 4.15L223.3 4.15Q223.3 6.15 225.03 7.15 226.75 8.15 229.65 8.15L229.65 8.15 232 8.15Q235.75 8.15 237.88 6.9 240 5.65 240 3.55L240 3.55Q240 1.65 238.7 0.68 237.4-0.3 234.15-0.3L234.15-0.3 226.35-0.3Q224.75 0.4 224.03 1.55 223.3 2.7 223.3 4.15ZM251.35 10.6L251.35 10.6Q248.8 10.6 247.65 9.53 246.5 8.45 246.5 6.7L246.5 6.7Q246.5 5.4 247.2 4.6 247.9 3.8 249.2 3.8L249.2 3.8Q250.35 3.8 250.97 4.48 251.6 5.15 251.6 6.3L251.6 6.3Q251.6 7.15 251.17 7.68 250.75 8.2 250.25 8.35L250.25 8.35 250.25 8.5Q250.8 8.7 251.55 8.7L251.55 8.7Q252.85 8.7 254.1 7.58 255.35 6.45 256.35 3.9L256.35 3.9 257.4 1.05 247.9-23.5 245.3-23.5 245.3-25.8 256-25.8 256-23.5 252.4-23.5 259.35-4.6 259.55-4.6 266.3-23.5 262.7-23.5 262.7-25.8 271.8-25.8 271.8-23.5 269.2-23.5 258.5 4.3Q257.45 7.05 255.67 8.83 253.9 10.6 251.35 10.6Z" opacity="1" transform="matrix(1,0,0,1,0,0)" fill="#f7fff7" class="undefined-text-1" data-fill-palette-color="secondary" id="text-1"></path></svg></g></svg></g></svg></g></svg></g><g></g></svg></g><defs></defs></svg><rect width="265.54943001176593" height="247.2" fill="none" stroke="none" visibility="hidden"></rect></g></svg></g></svg>